# xmcd
#
# Track frame offsets:
#       150
#       13351
#       30171
#       45714
#       56917
#       71740
#       87131
#       101560
#       115411
#       129158
#       141815
#       156708
#       171789
#       186944
#       202091
#       216675
#       230471
#       244694
#
# Disc length: 3437 seconds
#
# Revision: 0
# Processed by: cddbd v1.5.1PL2 Copyright (c) Steve Scherf et al.
# Submitted via: WaveLab 4.01
#
DISCID=0f0d6b12
DTITLE=Bing Crosby - Bing Crosby The Centennial Anthology The Deluxe Edition
DYEAR=2006
DGENRE=
TTITLE0=Where the Blue of the Night (Meets the Gold of the Day)
TTITLE1=I Surrender, Dear
TTITLE2=Wrap Your Troubles in Dreams (And Dream Your Troubles Away)
TTITLE3=Dancing In The Dark
TTITLE4=I'm Thru with Love
TTITLE5=Just A Gigolo
TTITLE6=Out of Nowhere
TTITLE7=I Found A Million-Dollar Baby (In A Five and Ten Cent Store)
TTITLE8=Sweet and Lovely
TTITLE9=Stardust
TTITLE10=Just One More Chance
TTITLE11=I Apologize
TTITLE12=At Your Command
TTITLE13=If You Should Ever Need Me
TTITLE14=A Faded Summer Love
TTITLE15=Now That You're Gone
TTITLE16=Too Late
TTITLE17=Goodnight Sweetheart
EXTD=
EXTT0=
EXTT1=
EXTT2=
EXTT3=
EXTT4=
EXTT5=
EXTT6=
EXTT7=
EXTT8=
EXTT9=
EXTT10=
EXTT11=
EXTT12=
EXTT13=
EXTT14=
EXTT15=
EXTT16=
EXTT17=
PLAYORDER=
